<?xml version="1.0" encoding="UTF-8"?>
<svg width="192px" height="55px" viewBox="0 0 192 55" version="1.1" xmlns="http://www.w3.org/2000/svg" xmlns:xlink="http://www.w3.org/1999/xlink">
    <!-- Generator: Sketch 53 (72520) - https://sketchapp.com -->
    <title>Logo U</title>
    <desc>Created with Sketch.</desc>
    <g id="Page-1" stroke="none" stroke-width="1" fill="none" fill-rule="evenodd">
        <g id="Landing-CreSer" transform="translate(-128.000000, -28.000000)" fill="#FFFFFF" fill-rule="nonzero">
            <g id="Logo-U" transform="translate(128.000000, 28.000000)">
                <path d="M19.8220357,55 C18.537127,51.8956299 17.4665461,48.7079041 16.617727,45.4589582 C16.6619197,45.9576421 16.5133516,46.4543355 16.2022144,46.8481013 L12.1504418,52.4816459 C11.5105792,53.3700943 10.2669645,53.5749573 9.37275052,52.9392204 C8.47853656,52.3034834 8.27234399,51.0678871 8.91220651,50.1794386 L11.2258563,46.7445454 C11.5631998,46.3151335 11.4866564,45.6953809 11.0548246,45.3597461 L7.25435317,42.6665979 C7.63875118,42.988682 7.69895042,43.5547146 7.39079434,43.9495071 C7.08263826,44.3442996 6.51587648,44.4272469 6.10623255,44.1375065 C5.69658861,43.8477661 5.58995698,43.288529 5.86455267,42.8699993 C6.13914835,42.4514696 6.69717425,42.3227064 7.12931465,42.5781584 L5.68708716,41.5559784 C5.27330796,41.2293542 5.00771186,40.7522688 4.94914981,40.230435 C4.89058776,39.7086013 5.04389548,39.1851092 5.37510295,38.7759546 L8.97551273,34.2961199 C9.15418792,34.1035374 9.24801284,33.848009 9.23612438,33.5863547 C9.22423592,33.3247004 9.10761962,33.0786107 8.91220651,32.9028067 L7.55042339,31.6707349 C7.88979874,32.0385153 7.87855454,32.6063022 7.52488078,32.9605342 C7.17120702,33.3147662 6.59984446,33.3305056 6.22695889,32.9962883 C5.85407332,32.662071 5.8111815,32.0957754 6.12952473,31.7098767 C6.44786797,31.3239779 7.01516656,31.2545826 7.41821483,31.5522364 L5.5674699,29.8790095 C5.90248811,30.2541425 5.87843301,30.8254717 5.51305145,31.1714943 C5.14766989,31.5175169 4.57214096,31.514004 4.21106593,31.1635472 C3.84999091,30.8130905 3.83300276,30.2415107 4.17263463,29.8704957 C4.49643754,29.5191222 5.03405958,29.4650711 5.42214541,29.7448733 L4.42131263,28.8413656 C3.60952518,28.1065304 3.55096138,26.857005 4.29050311,26.0503954 L4.74064177,25.5607637 C4.33965264,25.7859997 3.83334523,25.6880579 3.54669809,25.3298034 C3.26005095,24.9715489 3.27819348,24.4593772 3.58948072,24.1220309 C3.90076796,23.7846846 4.4127528,23.72235 4.79681258,23.9750371 C5.18087236,24.2277242 5.32294774,24.7203892 5.13184619,25.1368101 L8.3873945,21.5948859 C8.56510584,21.4015549 8.65790296,21.1458061 8.64523273,20.884284 C8.63256249,20.6227618 8.51547062,20.377051 8.31989119,20.2015727 L6.94236895,18.9522995 C7.29175796,19.3143317 7.28966855,19.8862957 6.93764374,20.2457986 C6.58561892,20.6053014 6.01021806,20.6230953 5.63637215,20.2860395 C5.26252625,19.9489837 5.22463974,19.378256 5.55069166,18.9953362 C5.87674357,18.6124164 6.44951227,18.5549713 6.8460106,18.8654238 L4.69499834,16.916627 C4.96173109,17.3077947 4.89185506,17.8353534 4.5323459,18.1446404 C4.17283674,18.4539275 3.63731945,18.447191 3.28580688,18.1289597 C2.9342943,17.8107284 2.87788407,17.2815812 3.15449917,16.8972485 C3.43111426,16.5129158 3.95332883,16.3948682 4.37007307,16.6224658 L3.84193836,16.1449967 C3.37315866,15.7345994 2.98845146,15.2382179 2.70889702,14.6830516 C2.84448088,15.1484154 2.59831725,15.6393365 2.14275944,15.8120928 C1.68720163,15.9848491 1.17441939,15.781735 0.963441062,15.3449623 C0.752462736,14.9081896 0.913761307,14.3836533 1.33440237,14.1386114 C1.75504343,13.8935695 2.29452046,14.0098733 2.57511455,14.4060918 C2.20188547,13.526296 1.96809761,12.5943607 1.8820689,11.6434431 C1.9023268,12.1476867 1.51631785,12.5769771 1.00973608,12.6135866 C0.503154307,12.6501962 0.0586834866,12.2809227 0.00528661863,11.7790739 C-0.0481102493,11.2772251 0.30882284,10.823778 0.811911558,10.7543391 C1.31500028,10.6849003 1.78282052,11.0245107 1.86912785,11.521817 C1.75759758,10.4640867 1.79828676,9.39596425 1.98996927,8.34963606 C1.87919161,8.84776282 1.38813254,9.16667581 0.884457227,9.06759887 C0.380781915,8.96852193 0.0490727348,8.48776387 0.1376866,7.98527731 C0.226300466,7.48279075 0.70276297,7.14272242 1.21033766,7.21968789 C1.71791234,7.29665335 2.07058784,7.762447 2.00430935,8.26832036 C2.19910021,7.25259768 2.54309086,6.27083532 3.02525322,5.35450786 C2.7626138,5.78774402 2.20034453,5.93413875 1.75760892,5.68455693 C1.31487332,5.43497511 1.15294434,4.88033059 1.39253767,4.43410275 C1.63213101,3.9878749 2.18597125,3.8126088 2.64117861,4.03896275 C3.09638596,4.2653167 3.28714445,4.81083794 3.0712464,5.26884838 C4.6644803,2.31826378 7.63434143,0.351969354 10.9885454,0.0269396586 C12.2107751,-0.101636444 12.8765396,0.255422869 13.2159798,0.563658013 C13.8946854,1.17474201 13.9321095,2.10118495 13.3238802,2.8879317 L7.13333687,11.0940408 C6.47037041,11.9534157 6.45130859,13.1498685 7.26134833,13.885011 L13.2088098,19.2744348 C13.5397304,19.5719881 13.7596856,19.9719555 13.8329531,20.4093795 C13.8652862,15.9593153 14.2446266,11.51843 14.9675683,7.12659931 L19.2008654,7.12659931 C18.1785225,11.7450877 17.8621663,16.4805108 17.8621663,21.1903925 C17.8621663,31.0982237 19.097337,41.6313866 21.9877378,51.1752084 C24.8732421,41.6313866 26.1133094,31.0982237 26.1133094,21.1903925 C26.1133094,16.4805108 25.7955542,11.7450877 24.7732113,7.12659931 L29.0080822,7.12659931 C29.74323,11.6071716 30.1233016,16.1381596 30.144796,20.6778256 C30.1607244,20.1417492 30.3953704,19.6351536 30.7948214,19.2744348 L36.740709,13.885011 C37.5559951,13.1496947 37.537283,11.9534157 36.8715185,11.0940408 L30.6801008,2.8879317 C30.0732705,2.1013587 30.1106946,1.17474201 30.7907992,0.563658013 C31.1272665,0.255249117 31.7944301,-0.101636444 33.0182336,0.0269396586 C38.8118015,0.647927486 42.7173752,5.66048424 42.1435971,11.4809854 C42.2497481,10.9968291 42.7183486,10.6796049 43.210696,10.7586014 C43.7030433,10.8375979 44.0473229,11.2852476 43.9946907,11.7779909 C43.9420584,12.2707342 43.5108815,12.6366185 43.012813,12.6111838 C42.5147444,12.5857492 42.1235954,12.1778715 42.122087,11.6823634 C42.0331599,12.6186455 41.8003767,13.5358642 41.4318394,14.4020955 C41.7135546,14.00761 42.2522255,13.8928727 42.6719424,14.1379527 C43.0916594,14.3830328 43.2528573,14.9064355 43.0430448,15.3429063 C42.8332323,15.7793771 42.3221766,15.9837797 41.8665162,15.8134726 C41.4108557,15.6431655 41.1621076,15.1547795 41.2938598,14.6891329 C41.014545,15.241654 40.6313697,15.7359509 40.1650156,16.1453442 L39.6403784,16.6207283 C40.0573831,16.3950354 40.5783469,16.5142776 40.8539327,16.8984958 C41.1295184,17.2827141 41.0729253,17.8108921 40.7221025,18.1288548 C40.3712796,18.4468175 39.8367249,18.454417 39.4768893,18.1465573 C39.1170536,17.8386976 39.0452736,17.3123447 39.3096822,16.9204496 L37.1800051,18.8490911 C37.5818338,18.5555407 38.1447335,18.6264798 38.4600711,19.0104108 C38.7754088,19.3943418 38.7324782,19.9564773 38.3624446,20.288739 C37.992411,20.6210007 37.4251827,20.6067408 37.0725351,20.2563113 C36.7198875,19.9058817 36.7056252,19.3423084 37.0401019,18.9747135 L35.6870627,20.2010515 C35.4916377,20.3766966 35.3747754,20.6225166 35.3623673,20.8840492 C35.3499591,21.1455818 35.4430296,21.4012339 35.6209585,21.5943647 L38.8751077,25.1378526 C38.6819849,24.7201104 38.8237521,24.2248573 39.2092326,23.9706126 C39.594713,23.7163679 40.1091191,23.7788399 40.4216136,24.1178501 C40.7341081,24.4568603 40.7516371,24.9714591 40.4629268,25.3306851 C40.1742166,25.6899111 39.6652386,25.7867949 39.2633392,25.5590262 L39.7134779,26.0502217 C40.0694529,26.4370819 40.2558683,26.9487723 40.2315898,27.4723832 C40.2073112,27.9959941 39.9743341,28.4884883 39.5840674,28.8411918 L38.5846336,29.7446996 C38.9866129,29.4484956 39.5515123,29.5161233 39.8711699,29.8987191 C40.1908276,30.2813149 40.1537473,30.84543 39.7867212,31.1834691 C39.419695,31.5215083 38.8507411,31.5155639 38.4909508,31.1699311 C38.1311605,30.8242983 38.1060283,30.2595333 38.433713,29.8837008 L36.5945101,31.5468501 C36.997426,31.2539624 37.5604999,31.3251152 37.8767964,31.7088862 C38.193093,32.0926572 38.1522539,32.6551456 37.7837937,32.9898393 C37.4153335,33.324533 36.8478108,33.3146548 36.4913761,32.9673436 C36.1349414,32.6200325 36.1139575,32.056468 36.4435895,31.68394 L35.0947474,32.9031542 C34.6897549,33.2700094 34.6601794,33.893388 35.0286431,34.2964674 L38.6335998,38.7778658 C39.3190911,39.631438 39.1795011,40.8752945 38.3216155,41.5578897 L36.8821861,42.5786797 C37.3148339,42.3291046 37.8685873,42.4626902 38.1378728,42.8815975 C38.4071583,43.3005047 38.2962691,43.8558498 37.8864214,44.1408934 C37.4765738,44.4259369 36.9134315,44.3393718 36.6094446,43.9445989 C36.3054578,43.549826 36.3686662,42.9871516 36.7527756,42.668683 L32.9523042,45.3618311 C32.7433236,45.5219624 32.6077079,45.7586738 32.5758236,46.0189622 C32.5439393,46.2792506 32.6184499,46.5413709 32.7826715,46.7466304 L35.0945725,50.1794386 C35.7302347,51.0675221 35.5228552,52.2991852 34.6308847,52.9333619 C33.7389142,53.5675385 32.4986529,53.3651248 31.8577363,52.4807771 L27.80404,46.8472326 C27.4781092,46.4348059 27.3305795,45.9105563 27.3939536,45.389983 C27.4573277,44.8694098 27.7264058,44.3952257 28.1419063,44.0719 L33.5026486,40.3188678 C33.710034,40.1575299 33.8436778,39.9203342 33.8736847,39.6603401 C33.9036917,39.4003459 33.8275575,39.1392502 33.6623131,38.9354584 L30.0760686,34.7709827 C29.7205593,34.3861545 29.5338052,33.8765798 29.5570276,33.3547343 C28.7560815,40.7285738 27.0793412,47.945342 24.1516911,54.999305 L19.8220357,55 Z M13.9321095,34.7716777 L10.344291,38.9359797 C10.179431,39.1395716 10.1031181,39.40009 10.1322695,39.6597827 C10.1614209,39.9194753 10.2936283,40.1568874 10.4995836,40.3193891 L15.8631239,44.0724213 C16.1213673,44.2735141 16.3256135,44.5348752 16.4577127,44.833279 C15.5305803,41.1369952 14.8577809,37.382291 14.4439805,33.5952064 C14.4095486,34.0329497 14.2294613,34.4468578 13.9321095,34.7716777 L13.9321095,34.7716777 Z M30.1509168,21.8329255 C30.1606254,25.5968104 29.9714959,29.3586077 29.5843087,33.1027947 C29.6596049,32.6688484 29.8787396,32.2723623 30.2068781,31.9763637 L34.6975971,27.9189189 C34.8920421,27.7425455 35.0079634,27.4966217 35.0198369,27.2352956 C35.0317104,26.9739696 34.9385627,26.7186687 34.7609033,26.5256057 L30.6655858,22.0713125 C30.3535712,21.734231 30.1699682,21.2993872 30.1465448,20.8420207 C30.1493429,21.1718011 30.1509168,21.5029714 30.1509168,21.8327517 L30.1509168,21.8329255 Z M13.3396193,22.0713125 L9.24150376,26.525432 C8.87564059,26.9296806 8.90575585,27.5512797 9.30900707,27.9187452 L13.798327,31.97619 C14.0664149,32.2174214 14.2628611,32.5270165 14.3663342,32.8713577 C13.9959963,29.2034362 13.8150508,25.5190713 13.8242091,21.8327517 C13.8242091,21.5894996 13.8242091,21.3472901 13.8256082,21.1029955 C13.7584188,21.4647305 13.5899846,21.80033 13.3396193,22.0713125 L13.3396193,22.0713125 Z M34.5667876,2.53816995 C34.280007,2.79657548 34.219504,3.2214393 34.4228755,3.54874807 C34.626247,3.87605684 35.0356423,4.01270479 35.3966603,3.87377793 C35.7576783,3.73485107 35.9676243,3.35986833 35.8960364,2.98184659 C35.8244485,2.60382486 35.4916906,2.33029566 35.1045406,2.33123193 C34.9054757,2.33056944 34.713469,2.40445743 34.5667876,2.53816995 L34.5667876,2.53816995 Z M8.30957332,2.5902954 C8.05247643,2.86850755 8.02682726,3.28767118 8.24810763,3.5947796 C8.469388,3.90188802 8.87702289,4.01287097 9.22496434,3.86073927 C9.5729058,3.70860757 9.76590561,3.33500694 9.68746931,2.96544229 C9.609033,2.59587764 9.28063235,2.33151649 8.90048962,2.33192693 C8.67582787,2.33082112 8.46117465,2.42416979 8.30957332,2.58890539 L8.30957332,2.5902954 Z M34.1217204,48.7275712 C33.8858332,48.3734551 33.9222384,47.9053822 34.2100821,47.5914766 C34.4979259,47.2775711 34.963619,47.1980849 35.3404005,47.3985499 C35.7171821,47.5990148 35.9087253,48.0281807 35.8053093,48.4402102 C35.7018933,48.8522398 35.3299571,49.1417949 34.9025553,49.143011 C34.5880365,49.144302 34.2941054,48.9877958 34.1210209,48.7268762 L34.1217204,48.7275712 Z M8.5843083,48.9838546 C8.15582249,48.6973466 8.04169796,48.1202551 8.3292232,47.6939701 C8.61674843,47.2676852 9.19735977,47.1531634 9.6269749,47.4379971 C10.05659,47.7228308 10.172995,48.2994725 9.88715719,48.7268762 C9.71106069,48.986275 9.41686885,49.1419269 9.10195028,49.142316 C8.9172902,49.1424184 8.73689029,49.0871941 8.5843083,48.9838546 Z M34.3770438,45.4914497 C34.0801485,45.0710925 34.1818363,44.491273 34.6043323,44.1954597 C35.0268283,43.8996464 35.6106109,43.9995294 35.9091804,44.4187144 C36.2077499,44.8378993 36.1083756,45.4181147 35.6870627,45.7155891 C35.483487,45.8586446 35.2310142,45.9154048 34.9852832,45.8733611 C34.7395522,45.8313174 34.5207314,45.6939206 34.3770438,45.4914497 Z M8.31691824,45.7155891 C7.9386621,45.4497713 7.81199133,44.9496231 8.01857057,44.53759 C8.22514981,44.1255569 8.70326529,43.9247303 9.14467597,44.0645831 C9.58608664,44.2044358 9.85892487,44.6431881 9.78729184,45.0979764 C9.71565881,45.5527647 9.32095428,45.8877249 8.85764425,45.8869081 C8.6639575,45.8867592 8.47506746,45.8270343 8.31691824,45.7159366 L8.31691824,45.7155891 Z M38.17052,38.2004896 C37.8981999,37.8607291 37.8984145,37.3790549 38.1710373,37.039534 C38.4436602,36.7000131 38.9162987,36.5928022 39.3102149,36.7811287 C39.704131,36.9694553 39.9147239,37.403311 39.8177966,37.8268298 C39.7208693,38.2503486 39.34216,38.551069 38.905012,38.5516414 C38.6189898,38.55259 38.3482854,38.4233283 38.1703452,38.2008371 L38.17052,38.2004896 Z M4.51609708,38.3492209 C4.15574558,38.0652584 4.05427347,37.564366 4.27599223,37.1640018 C4.49771098,36.7636376 4.97787661,36.5807117 5.41216744,36.7311597 C5.84645827,36.8816078 6.10805725,37.3214975 6.03116692,37.7720336 C5.95427659,38.2225696 5.56134966,38.552191 5.10141724,38.5519889 C4.88885159,38.5520733 4.68252842,38.4805983 4.51609708,38.3492209 L4.51609708,38.3492209 Z M36.2863732,35.855192 C36.0735722,35.597579 36.0152628,35.2467387 36.1334095,34.9348294 C36.2515563,34.6229201 36.5282099,34.3973281 36.8591576,34.3430318 C37.1901053,34.2887355 37.5250683,34.4139838 37.7378693,34.6715969 C37.9506703,34.9292099 38.0089797,35.2800501 37.890833,35.5919595 C37.7726862,35.9038688 37.4960326,36.1294608 37.1650849,36.1837571 C36.8341372,36.2380533 36.4991742,36.1128051 36.2863732,35.855192 L36.2863732,35.855192 Z M6.39254923,35.9837681 C6.03920525,35.6951741 5.94596329,35.195906 6.17157961,34.8005768 C6.39719593,34.4052476 6.87629098,34.2284165 7.30696377,34.3815135 C7.73763656,34.5346104 7.99508584,34.9732706 7.91708035,35.421073 C7.83907486,35.8688755 7.4482192,36.196055 6.99081044,36.1964399 C6.77276839,36.1964479 6.56146694,36.1213512 6.39289899,35.9839419 L6.39254923,35.9837681 Z M37.0455232,23.1192078 C36.7467031,22.7927452 36.7187588,22.3029907 36.9785293,21.9450659 C37.2382998,21.5871411 37.7148297,21.4588119 38.1209664,21.6374082 C38.5271031,21.8160046 38.7519118,22.2527436 38.6599248,22.6844503 C38.5679379,23.116157 38.1842812,23.4249122 37.7401427,23.4246629 C37.4757793,23.424395 37.2237549,23.3135129 37.0458729,23.1192078 L37.0455232,23.1192078 Z M5.63042635,23.1821058 C5.29496857,22.8790939 5.2245458,22.3815576 5.46287742,21.9983738 C5.70120904,21.61519 6.1805854,21.4552207 6.60340338,21.617777 C7.02622136,21.7803332 7.27235902,22.219233 7.18901088,22.6620016 C7.10566275,23.1047702 6.71650789,23.4256178 6.26313874,23.4253579 C6.02921077,23.4252067 5.80374181,23.3384132 5.63077611,23.181932 L5.63042635,23.1821058 Z M42.0112136,8.31870829 C41.9395045,7.9478059 42.0997451,7.57050881 42.4172087,7.36276622 C42.7346723,7.15502362 43.1468327,7.15775153 43.4614826,7.36967781 C43.7761324,7.58160409 43.9312997,7.96098872 43.8546235,8.33090901 C43.7779473,8.7008293 43.4845295,8.98842748 43.1112028,9.05958465 C43.0543856,9.07102103 42.9965685,9.07684113 42.9385972,9.0769598 C42.4868561,9.07675641 42.0983536,8.75910727 42.0112136,8.31870829 L42.0112136,8.31870829 Z M40.9759297,5.34356152 C40.760173,4.97846619 40.8185459,4.51484729 41.1181735,4.21380837 C41.4178011,3.91276945 41.8837477,3.84959926 42.2535988,4.05987435 C42.6234499,4.27014944 42.804707,4.70128077 42.6952888,5.11046132 C42.5858706,5.51964186 42.2131421,5.80453705 41.7870187,5.80469797 C41.4532565,5.80560496 41.1442439,5.62991897 40.9759297,5.34356152 Z" id="Union_3" stroke-opacity="0" stroke="#000000"></path>
                <path d="M54.903223,37.9748213 L63.9415798,37.9748213 L63.9415798,34.403768 L54.903223,34.403768 L54.903223,29.2761244 L64.198771,29.2761244 L64.198771,25.7529798 L51.0740293,25.7529798 L51.0740293,46.8282049 L64.4992328,46.8282049 L64.4992328,43.2589194 L54.903223,43.2589194 L54.903223,37.9748213 Z M70.4017693,27.2100402 L66.5551979,27.2100402 L66.5551979,46.8282049 L80.072156,46.8282049 L80.072156,43.4823754 L70.4017693,43.4823754 L70.4017693,27.2100402 Z M97.6619443,35.5542836 C98.1724052,35.2393656 98.618309,34.8271642 98.9751831,34.3403022 C99.5413511,33.5553776 99.7919387,32.5781112 99.7919387,31.4659579 C99.7919387,29.6821991 99.196576,28.2168298 98.0002896,27.210217 C96.8036557,26.19724 95.1722298,25.7342406 93.1133105,25.7342406 L86.7877988,25.7342406 L86.7877988,46.8282049 L94.1992479,46.8282049 C96.3295899,46.8282049 98.0776207,46.2978504 99.4012862,45.2249434 C100.716646,44.1749081 101.457785,42.5472799 101.394517,40.8475745 C101.417644,39.5179147 100.956582,38.2265272 100.100047,37.2218947 C99.4293328,36.4767415 98.5934722,35.9052122 97.6619443,35.5548139 L97.6619443,35.5542836 Z M90.5758072,29.3015814 L92.8175407,29.3015814 C93.9964493,29.3015814 94.7671538,29.5167285 95.1873485,29.8672928 C95.4021954,30.0505664 95.567868,30.2862537 95.6688867,30.552334 C95.7839843,30.9056361 95.8392211,31.2762684 95.8322379,31.6483998 C95.8322379,32.6230145 95.5477636,33.22974 94.9683885,33.6740003 C94.4152537,34.095632 93.4302812,34.3650521 92.0223335,34.3650521 L90.5761547,34.3650521 L90.5758072,29.3015814 Z M96.6462131,42.5957996 C96.1500775,42.9801298 95.2333996,43.242832 93.8982648,43.2187893 L90.5758072,43.2187893 L90.5758072,37.9481268 L93.4299337,37.9481268 C94.9298098,37.9481268 95.969001,38.2076469 96.5405562,38.6363501 C97.1065504,39.0721246 97.4045794,39.6539235 97.4045794,40.6471006 C97.4045794,41.6167653 97.1477358,42.1982105 96.6456917,42.595446 L96.6462131,42.5957996 Z M131.585629,35.337015 L131.585629,35.337015 L131.174123,35.1100233 C130.305167,34.6245068 129.493477,34.0397544 128.754788,33.3671018 C128.543333,33.1688213 128.36269,32.9390353 128.219032,32.6855963 C128.122113,32.5478945 128.066847,32.3843898 128.060025,32.2151719 C128.051389,31.7526516 128.284642,31.3202011 128.672765,31.0791527 C129.116594,30.7533383 129.691451,30.5739017 130.46928,30.5739017 C131.138173,30.5714238 131.801198,30.7008601 132.421674,30.9550498 C133.20723,31.3054757 133.945327,31.7570193 134.617877,32.2986144 L135.393969,32.8843025 L135.393969,28.6858399 L135.160412,28.544412 C134.438109,28.1366267 133.673711,27.8113119 132.881142,27.5743937 C132.132875,27.3638392 131.360664,27.2541787 130.584321,27.2482257 C128.858186,27.2482257 127.376731,27.7375661 126.224062,28.710413 C125.104931,29.6423842 124.465054,31.0429666 124.486284,32.5141151 C124.463147,33.5525724 124.78665,34.5683528 125.404005,35.3957076 C125.852634,35.916356 126.362837,36.3785618 126.922997,36.7718006 C127.619324,37.3074586 128.512368,37.8899646 129.593614,38.5679343 C130.273606,38.9607502 130.820833,39.3312912 131.246936,39.6355378 C131.558148,39.8481961 131.847554,40.0921486 132.110785,40.3637145 C132.387414,40.7070923 132.54175,41.1355569 132.548705,41.5794637 C132.556125,42.0917331 132.315786,42.5750463 131.905727,42.8724678 C131.486923,43.1989894 130.849158,43.4007009 129.97384,43.4007009 C129.17386,43.4077197 128.38449,43.2142182 127.675455,42.8372876 C126.966267,42.4660395 126.182356,41.8183 125.344921,40.9347295 L124.507312,40.0136806 L124.507312,44.8837487 L124.714455,45.0230551 C125.461888,45.6324688 126.311898,46.0987314 127.223111,46.3991481 C128.164444,46.7155617 129.151315,46.8689625 130.142578,46.8529548 C131.880356,46.8529548 133.360248,46.3622001 134.501099,45.3907675 C135.622946,44.473417 136.267699,43.0821276 136.249477,41.6180028 C136.249477,40.3430307 135.953186,39.2253971 135.315421,38.3146017 C134.677657,37.3831225 133.44453,36.4283077 131.584238,35.3384293 L131.585629,35.337015 Z M155.720062,43.5849106 C157.143799,41.8724008 157.909331,39.6930755 157.874907,37.4504775 C157.87877,36.0784314 157.62056,34.7186905 157.114629,33.4468318 C156.577605,32.1994075 155.804555,31.0716682 154.83953,30.1278736 C153.885635,29.1717465 152.75267,28.4202803 151.507863,27.9180634 C150.238785,27.4075401 148.885921,27.1469354 147.521226,27.1501102 C146.170087,27.1466261 144.830881,27.4073388 143.57647,27.9180634 C142.32571,28.4254676 141.184187,29.1760724 140.215781,30.1278736 C139.267523,31.0602738 138.511355,32.1755096 137.991426,33.4084695 C137.45791,34.6213383 137.182871,35.9353787 137.184402,37.2641463 C137.151717,39.5747666 137.90836,41.8253017 139.32517,43.6315818 C140.719911,45.427362 142.584894,46.6240184 144.864337,47.2100601 C146.360644,48.3173633 147.972024,49.254051 149.669467,50.0032602 C151.233467,50.6750425 152.652363,50.999973 153.944401,50.999973 L154.319413,50.999973 C154.424447,51.0006023 154.529266,50.9902353 154.632213,50.9690356 L154.785312,50.9449929 L157.627969,48.4077772 L157.412137,47.7984 L157.25313,47.4140698 L156.880898,47.4987497 C156.555525,47.5680426 156.226727,47.6195022 155.895926,47.652906 C155.637289,47.6936866 155.375553,47.7105501 155.113926,47.7032897 C154.328867,47.6934303 153.547683,47.589531 152.78652,47.3937395 C152.284475,47.2494831 151.708228,47.0447663 151.096878,46.8045157 C152.967422,46.0989675 154.540459,45.0430318 155.718151,43.5838499 L155.720062,43.5849106 Z M153.605187,39.5338866 C153.278288,40.3392573 152.795453,41.0694889 152.185422,41.6811149 L152.164916,41.7002077 C150.956786,42.9939142 149.274169,43.7181726 147.520183,43.6994672 C146.656363,43.6998604 145.801305,43.5233404 145.005966,43.180427 C144.207318,42.8281929 143.481059,42.3260265 142.865198,41.7002077 L142.865198,41.6811149 C142.25474,41.0728919 141.7761,40.3414853 141.46003,39.5338866 C141.122046,38.7254481 140.952065,37.854637 140.960767,36.9761638 C140.953141,36.0873836 141.124409,35.2064198 141.464027,34.3875038 C141.780649,33.5854146 142.255303,32.8577433 142.858768,32.2492914 C143.485795,31.6226561 144.22419,31.122975 145.03464,30.7768507 C146.636301,30.1026332 148.435519,30.1026332 150.037181,30.7768507 C150.835819,31.1066444 151.557935,31.6025076 152.15727,32.2326736 C152.78248,32.862419 153.276363,33.6140186 153.609357,34.4424839 C153.946565,35.2424496 154.115107,36.1054667 154.104103,36.9758103 C154.111388,37.8536935 153.94306,38.7239101 153.609357,39.533533 L153.605187,39.5338866 Z M172.649321,39.2683558 C172.630553,40.5224673 172.236773,41.4541232 171.353634,42.1983873 C170.500038,42.9338122 169.339897,43.3464279 167.825945,43.3464279 C167.026601,43.3569594 166.233263,43.2047066 165.49263,42.898632 C164.814233,42.6041614 164.21311,42.152057 163.737475,41.5785798 C163.47513,41.2628212 163.292797,40.8865033 163.20641,40.4825139 C163.086677,40.0608821 163.018382,39.2469648 163.018382,38.0708154 L163.018382,27.2268348 L159.451419,27.2268348 L159.451419,38.1765327 C159.451419,39.6733698 159.547518,40.786407 159.773777,41.578403 C159.984315,42.3521732 160.356635,43.0705613 160.865275,43.6844405 C161.669128,44.7022508 162.702271,45.5079802 163.877192,46.0333803 C165.124776,46.5749055 166.469646,46.8458485 167.825945,46.828912 C170.24945,46.828912 172.292034,46.1406887 173.850995,44.7630047 C175.426986,43.4001705 176.225321,41.540571 176.196995,39.3489696 L176.196995,27.2268348 L172.649321,27.2268348 L172.649321,39.2683558 Z M182.321272,43.4441899 L182.321272,38.6363501 L191.415064,38.6363501 L191.415064,35.276201 L182.320577,35.276201 L182.320577,30.6557531 L191.699191,30.6557531 L191.699191,27.3132826 L178.476786,27.3132826 L178.476786,46.7850694 L192,46.7850694 L192,43.4438364 L182.321272,43.4441899 Z M120.200229,29.9825565 C119.232005,29.0480746 118.095241,28.3129369 116.852574,27.8176496 C115.569845,27.3238529 114.209803,27.0704969 112.838307,27.0698499 C111.489091,27.0714591 110.151618,27.3249231 108.892334,27.8176496 C107.638802,28.3013068 106.494274,29.0376807 105.527475,29.9825565 C104.560452,30.8826361 103.784826,31.9746081 103.248379,33.1912009 C102.730466,34.3838716 102.460217,35.6724895 102.454562,36.9763406 C102.431658,39.7030703 103.548862,42.3112421 105.527649,44.150622 C106.494749,45.0820364 107.632045,45.8114302 108.87513,46.2974969 C111.436099,47.2865974 114.263339,47.2940121 116.829287,46.3183575 C118.083909,45.8189421 119.234811,45.083538 120.221777,44.150622 C121.171604,43.2440476 121.937674,42.1569799 122.476718,40.9508169 C122.992119,39.7474012 123.255936,38.4481156 123.251419,37.135447 C123.262738,35.8013538 123.005479,34.4790253 122.495486,33.2498935 C121.958444,32.0122024 121.177214,30.8999274 120.200229,29.9820261 L120.200229,29.9825565 Z M118.962584,39.5482061 C118.289024,41.1590217 117.011012,42.4294922 115.412477,43.0773614 C113.762088,43.7261512 111.933293,43.7261512 110.282904,43.0773614 C109.493191,42.7460983 108.771978,42.2662861 108.15708,41.6630829 C107.545297,41.06553 107.061775,40.3455737 106.736968,39.5485597 C106.401098,38.7633022 106.231576,37.914882 106.239442,37.0585456 C106.236065,36.1945403 106.405333,35.3388499 106.736968,34.543428 C107.070427,33.7599404 107.553078,33.0513743 108.15708,32.4586046 C108.796799,31.8528677 109.536094,31.3660965 110.341293,31.0204602 C111.9561,30.3674423 113.755268,30.3674423 115.370075,31.0204602 C116.173134,31.3452766 116.901853,31.8348215 117.510844,32.4586046 C118.13795,33.0665553 118.638193,33.7968348 118.981699,34.605833 C119.300174,35.3827819 119.462431,36.2167598 119.458893,37.0585456 C119.46585,37.9146496 119.296859,38.762784 118.962757,39.5485597 L118.962584,39.5482061 Z M56.5402098,21.1083123 C58.2531376,21.1083123 59.6132963,20.5565669 60.6173844,19.4681028 C61.6037472,18.3743351 62.126297,16.8941158 62.126297,15.0484823 L62.126297,7 L60.9854458,7 L60.9854458,15.1114177 C60.9854458,16.5888084 60.5857569,17.76319 59.7975008,18.6377445 C58.9744892,19.5068186 57.8975882,19.9560288 56.5405574,19.9560288 C55.186307,19.9560288 54.1066256,19.5068186 53.3082904,18.6377445 C52.4925775,17.7630132 52.0859374,16.587571 52.0883703,15.1114177 L52.0883703,7 L51,7 L51,15.0472448 C51,16.9114407 51.4916174,18.39166 52.4925775,19.4668653 C53.4907571,20.5553294 54.8477879,21.1070748 56.5405574,21.1070748 L56.5402098,21.1083123 Z M67.3709108,9.08959653 L76.1452992,19.8492508 L77.0253099,19.8492508 L77.0253099,7.689284 L76.079785,7.689284 L76.079785,18.2861195 L67.4082731,7.689284 L66.4132214,7.689284 L66.4132214,19.8504883 L67.3705633,19.8504883 L67.3709108,9.08959653 Z M81.3730566,20.0325767 L82.391742,20.0325767 L82.391742,7.85404745 L81.3730566,7.85404745 L81.3730566,20.0325767 Z M91.0055597,20.2342881 L96.0326037,7.85475459 L95.0146134,7.85475459 L90.9230152,18.072917 L86.8809437,7.85475459 L85.8184663,7.85475459 L90.8616716,20.2342881 L91.0055597,20.2342881 Z M105.443366,19.2008041 L99.8399014,19.2008041 L99.8399014,14.2517132 L105.122746,14.2517132 L105.122746,13.4720921 L99.8399014,13.4720921 L99.8399014,8.64303808 L105.305908,8.64303808 L105.305908,7.85387066 L98.8811693,7.85387066 L98.8811693,20.0325767 L105.443193,20.0325767 L105.443366,19.2008041 Z M110.612039,14.1781707 L111.574942,14.1781707 C112.087455,14.1660241 112.599654,14.2134743 113.10158,14.3195985 C113.419807,14.3913938 113.711972,14.5522505 113.945097,14.7840123 C114.170019,15.0428891 114.380505,15.3143847 114.575563,15.5972224 C114.835187,15.9635206 115.173706,16.447027 115.532557,17.0403169 L117.426735,20.0327535 L118.502246,20.0327535 L115.232096,14.9105902 C115.101397,14.698296 114.94927,14.5004623 114.778188,14.3203057 C114.589985,14.1560279 114.388891,14.0076825 114.176917,13.8767526 C114.931286,13.6310217 115.500582,13.2615414 115.872467,12.7573511 C116.261528,12.2255243 116.459306,11.5739312 116.432726,10.9115409 C116.432726,9.92384408 116.110542,9.17003362 115.436285,8.64409879 C114.753164,8.11904789 113.79895,7.85493137 112.546707,7.85493137 L109.669121,7.85493137 L109.669121,20.0325767 L110.612213,20.0325767 L110.612039,14.1781707 Z M110.612039,8.688295 L112.600926,8.688295 C113.497098,8.688295 114.175527,8.86773159 114.67479,9.27362953 C115.153201,9.65972756 115.389538,10.2051087 115.389538,10.9113641 C115.408995,11.3677434 115.300189,11.8203113 115.075869,12.216036 C114.843123,12.5885415 114.499665,12.8758288 114.095415,13.0361408 C113.814637,13.1560097 113.5206,13.2407787 113.219749,13.2885895 C112.852383,13.3223554 112.236514,13.3446303 111.347467,13.3446303 L110.610823,13.3446303 L110.612039,8.688295 Z M127.594474,16.870957 C127.591932,16.4777899 127.528958,16.0874463 127.407837,15.7140772 C127.269349,15.3593826 127.070783,15.0321463 126.821163,14.747241 C126.44615,14.3203057 125.70186,13.8767526 124.626349,13.4275424 C124.539361,13.3916285 124.454629,13.3503006 124.372634,13.303793 C123.389052,12.8795094 122.758586,12.5181613 122.477239,12.1723702 C122.169341,11.8159005 122.010569,11.3511368 122.034801,10.8772446 C122.017503,10.2555087 122.264486,9.65635966 122.712535,9.2331458 C123.192967,8.79667051 123.819878,8.56465464 124.463693,8.58505266 C124.914323,8.58646749 125.361257,8.6678291 125.784405,8.82548002 C126.287908,9.01922237 126.764656,9.27841878 127.202779,9.59661538 L127.202779,8.50673699 C126.779589,8.25524908 126.330963,8.05094118 125.86469,7.89735973 C125.42393,7.76959071 124.968824,7.70013165 124.510613,7.69069828 C123.491928,7.69069828 122.674825,7.9977735 122.03567,8.60573649 C121.403928,9.19765037 121.054825,10.0386755 121.078328,10.9120712 C121.078328,11.6814387 121.279563,12.3160962 121.701495,12.802608 C122.117172,13.2891198 122.893611,13.7749245 124.032029,14.2522435 C125.129089,14.7272643 125.828197,15.1305105 126.130049,15.4720588 C126.443952,15.8522775 126.604589,16.3393676 126.579612,16.8352465 C126.579612,17.5823391 126.369341,18.1680272 125.905528,18.6115803 C125.471083,19.0413442 124.845483,19.2656841 124.07252,19.2656841 C123.576309,19.2529124 123.087456,19.1406296 122.633987,18.9352733 C122.06009,18.6823587 121.523728,18.3491415 121.040445,17.9452783 L121.040445,19.1184224 C121.5081,19.457624 122.018562,19.7311563 122.558046,19.9316325 C123.051592,20.1042033 123.569751,20.1927246 124.091635,20.1936276 C125.114491,20.1936276 125.944802,19.8989274 126.605852,19.2653306 C127.261191,18.6506539 127.622184,17.7769935 127.595343,16.8706034 L127.594474,16.870957 Z M132.424107,7.8545778 L131.41272,7.8545778 L131.41272,20.0325767 L132.424107,20.0325767 L132.424107,7.8545778 Z M143.256024,19.7474228 C143.883302,19.5789039 144.473141,19.2899816 144.993802,18.8962039 C145.732816,18.3333981 146.32794,17.5980392 146.728973,16.7521576 C147.546009,14.9652123 147.546009,12.9024959 146.728973,11.1155505 C146.32642,10.2705616 145.731573,9.53542496 144.993802,8.9711507 C144.475736,8.58247703 143.89214,8.29350843 143.271838,8.11851753 C142.516593,7.93635186 141.742482,7.84767058 140.966328,7.85440102 L136.857178,7.85440102 L136.857178,20.0325767 L140.966328,20.0325767 C141.73881,20.0451492 142.509305,19.9492529 143.256024,19.7475995 L143.256024,19.7474228 Z M137.874647,19.1665079 L137.874647,8.72269389 L140.725646,8.72276804 C141.399373,8.72009474 142.071498,8.78972063 142.730867,8.9304902 C143.250692,9.04557444 143.745421,9.25647686 144.190601,9.55277275 C144.859484,10.0214659 145.397843,10.6581767 145.753385,11.401058 C146.128686,12.1973946 146.317086,13.0715115 146.303739,13.9545379 C146.312126,14.837504 146.123975,15.7109519 145.753385,16.5094321 C145.39322,17.2486311 144.855741,17.8835711 144.190601,18.3555959 C143.745456,18.6531053 143.250827,18.8657619 142.730867,18.983182 C142.06984,19.1136961 141.397381,19.1747718 140.724082,19.1654471 L137.874647,19.1665079 Z M154.064655,8.31722367 L149.139793,20.0323999 L150.097134,20.0323999 L151.77548,15.9808455 L156.733882,15.9808455 L158.416399,20.0323999 L159.373393,20.0323999 L154.44714,8.31722367 L154.064655,8.31722367 Z M152.085674,15.1886727 L154.267454,9.92313694 L156.420039,15.1886727 L152.085674,15.1886727 Z M169.222945,19.7468924 C169.850658,19.5853417 170.439568,19.2957457 170.953945,18.8956735 C171.695912,18.3368587 172.290849,17.6004032 172.685988,16.7516273 C173.520626,14.9686853 173.520626,12.8979622 172.685988,11.1150202 C172.289361,10.2671077 171.694702,9.5308754 170.953945,8.97062035 C170.442319,8.57570062 169.859892,8.28608314 169.23928,8.11798718 C168.482051,7.93605247 167.70607,7.84737754 166.928035,7.85387066 L162.841824,7.85387066 L162.841824,20.0325767 L166.927687,20.0325767 C167.702026,20.0456324 168.474422,19.9497323 169.222945,19.7475995 L169.222945,19.7468924 Z M163.832357,19.1663483 L163.832357,8.72269557 L166.69274,8.72276804 C167.367385,8.72012569 168.040429,8.78975019 168.700742,8.9304902 C169.219965,9.0454227 169.714036,9.25634595 170.15839,9.55277275 C170.828233,10.0184133 171.365015,10.656095 171.714223,11.401058 C172.095237,12.1955885 172.285804,13.0706432 172.270312,13.9545379 C172.280818,14.8383697 172.090508,15.7127266 171.714223,16.5094321 C171.360368,17.2507336 170.824485,17.8866161 170.15839,18.3555959 C169.714071,18.6532364 169.220101,18.8659139 168.700742,18.983182 C168.039345,19.1135599 167.366553,19.174634 166.692914,19.1654471 L163.832357,19.1663483 Z" id="Path_868"></path>
            </g>
        </g>
    </g>
</svg>