<?xml version="1.0" encoding="UTF-8"?>
<svg width="289px" height="231px" viewBox="0 0 289 231" version="1.1" xmlns="http://www.w3.org/2000/svg" xmlns:xlink="http://www.w3.org/1999/xlink">
    <!-- Generator: Sketch 53 (72520) - https://sketchapp.com -->
    <title>Group 36</title>
    <desc>Created with Sketch.</desc>
    <defs>
        <polygon id="path-1" points="0.114344672 0.162604651 49.4783216 0.162604651 49.4783216 91.9366698 0.114344672 91.9366698"></polygon>
    </defs>
    <g id="Page-1" stroke="none" stroke-width="1" fill="none" fill-rule="evenodd">
        <g id="Landing-CreSer" transform="translate(-576.000000, -114.000000)">
            <g id="Group-36" transform="translate(576.000000, 114.000000)">
                <path d="M4.90726796,117.694311 L8.9395888,117.694311 C12.2957103,117.694311 13.1409595,115.921499 13.1409595,114.076093 C13.1409595,112.375875 12.2957103,110.651641 8.9395888,110.651641 L4.90726796,110.651641 L4.90726796,117.694311 Z M3,109.388621 C3,109.048578 3.09645486,109 3.3863271,109 L9.0604112,109 C12.0058381,109 15,110.141302 15,114.076093 C15,118.010338 12.0058381,119.345951 9.0604112,119.345951 L4.90726796,119.345951 L4.90726796,125.611379 C4.90726796,125.902845 4.83467298,126 4.52094086,126 L3.3863271,126 C3.07208732,126 3,125.902845 3,125.611379 L3,109.388621 Z" id="Fill-1" fill="#EEE45C"></path>
                <path d="M18,113.622898 C18,113.345939 18.0958794,113.25362 18.3598001,113.25362 L18.9598034,113.25362 C19.1520668,113.25362 19.2479462,113.345939 19.3680478,113.622898 L19.6561906,115.93089 C20.1360923,114.961533 21.2402194,113 24.6484801,113 C24.9840581,113 25.0325024,113.09232 24.9840581,113.323119 L24.8402389,114.361456 C24.7685817,114.638415 24.6964198,114.707395 24.408277,114.707395 C21.2881591,114.707395 19.8000098,116.807927 19.8000098,118.953581 L19.8000098,124.630721 C19.8000098,124.90768 19.7041304,125 19.4402097,125 L18.3598001,125 C18.0958794,125 18,124.90768 18,124.630721 L18,113.622898 Z" id="Fill-3" fill="#EEE45C"></path>
                <path d="M33.5,123.485969 C36.0950116,123.485969 38.1709169,121.497058 38.1709169,119.011428 C38.1709169,116.525797 36.0950116,114.536886 33.5,114.536886 C30.9299305,114.536886 28.8540251,116.525797 28.8540251,119.011428 C28.8540251,121.497058 30.9299305,123.485969 33.5,123.485969 M27,119.011428 C27,115.712151 29.891718,113 33.5,113 C37.108282,113 40,115.712151 40,119.011428 C40,122.311212 37.108282,125 33.5,125 C29.891718,125 27,122.311212 27,119.011428" id="Fill-5" fill="#EEE45C"></path>
                <path d="M53.1912388,119.219064 C53.1912388,116.895684 51.5535905,114.572303 49.0120755,114.572303 C46.4458956,114.572303 44.8329123,116.637237 44.8329123,119.242272 C44.8329123,121.636329 46.4458956,123.865825 49.0120755,123.865825 C51.5535905,123.865825 53.1912388,121.566179 53.1912388,119.219064 L53.1912388,119.219064 Z M44.4906864,128.841181 C44.5395024,128.653412 44.5883184,128.559528 44.6864643,128.559528 C44.7594313,128.559528 44.8087612,128.582735 44.9058793,128.629677 C45.6638119,128.888124 46.9345694,129.427697 49.0367405,129.427697 C52.1892262,129.427697 53.1670877,127.362235 53.1670877,124.546752 L53.1670877,122.716002 C52.8736779,123.372667 51.5294395,125.461336 48.6451848,125.461336 C45.1992892,125.461336 43,122.66906 43,119.242272 C43,115.839746 45.2239541,113 48.6451848,113 C51.5294395,113 52.849013,114.924107 53.4599837,115.816011 L53.6557616,113.633457 C53.7533936,113.351804 53.8510256,113.257919 54.0709545,113.257919 L54.6331092,113.257919 C54.9018542,113.257919 55,113.351804 55,113.633457 L55,124.358455 C55,128.864389 53.0936068,131 49.3054854,131 C46.6411596,131 44.9793603,130.342808 44.4665353,130.155039 C44.2219415,130.061681 44.1731255,129.991004 44.2460926,129.733085 L44.4906864,128.841181 Z" id="Fill-7" fill="#EEE45C"></path>
                <path d="M60,113.622898 C60,113.345939 60.0958794,113.25362 60.3598001,113.25362 L60.9598034,113.25362 C61.1520668,113.25362 61.2479462,113.345939 61.3680478,113.622898 L61.6561906,115.93089 C62.1360923,114.961533 63.2402194,113 66.6484801,113 C66.9840581,113 67.0325024,113.09232 66.9840581,113.323119 L66.8402389,114.361456 C66.7685817,114.638415 66.6964198,114.707395 66.408277,114.707395 C63.2881591,114.707395 61.8000098,116.807927 61.8000098,118.953581 L61.8000098,124.630721 C61.8000098,124.90768 61.7041304,125 61.4402097,125 L60.3598001,125 C60.0958794,125 60,124.90768 60,124.630721 L60,113.622898 Z" id="Fill-9" fill="#EEE45C"></path>
                <path d="M78.9638474,119.666892 C77.5790125,119.191992 76.5201218,118.853213 74.9726001,118.853213 C72.3935877,118.853213 71.0361526,119.712097 71.0361526,121.249048 C71.0361526,122.649877 72.25773,123.666723 74.4571401,123.666723 C76.330606,123.666723 78.0950433,122.604673 78.9638474,121.542623 L78.9638474,119.666892 Z M79.2897916,122.853043 C78.5568452,123.689579 76.7644373,125 73.8326515,125 C71.2262392,125 69,123.666723 69,121.249048 C69,118.78566 71.2262392,117.587488 74.5655979,117.587488 C76.0046618,117.587488 77.5790125,117.903919 78.9638474,118.37882 C78.9638474,115.53094 77.9591856,114.491746 75.1084578,114.491746 C73.3708496,114.491746 71.9591856,114.694912 70.9276948,114.852874 C70.8734659,114.87573 70.7918371,114.87573 70.7644373,114.87573 C70.5475216,114.87573 70.4658929,114.762973 70.411664,114.536443 L70.1947484,113.858884 C70.1131196,113.610006 70.1947484,113.497249 70.5201218,113.40684 C70.846066,113.339287 73.0997051,113 75.1900866,113 C79.7510227,113 81,114.694912 81,118.424024 L81,124.389994 C81,124.661221 80.8915422,124.75163 80.5929978,124.75163 L79.8058225,124.75163 C79.588336,124.75163 79.4798782,124.661221 79.3982495,124.389994 L79.2897916,122.853043 Z" id="Fill-11" fill="#EEE45C"></path>
                <path d="M85,113.622898 C85,113.345939 85.1013362,113.25362 85.3802773,113.25362 L86.0149618,113.25362 C86.2176342,113.25362 86.3195037,113.345939 86.4459073,113.622898 L86.649113,115.769071 C87.1056591,114.800233 88.2726252,113 90.6822928,113 C93.1682293,113 94.5128004,114.730734 94.9693465,115.838052 C95.4765607,114.800233 96.8211318,113 99.2307995,113 C101.716736,113 104,114.499935 104,118.192203 L104,124.630721 C104,124.90768 103.923731,125 103.619723,125 L102.477824,125 C102.22395,125 102.097547,124.90768 102.097547,124.630721 L102.097547,118.653801 C102.097547,115.907551 100.575371,114.568916 98.7742533,114.568916 C96.8974006,114.568916 95.4514934,116.161689 95.4514934,118.699961 L95.4514934,124.630721 C95.4514934,124.90768 95.3752246,125 95.0706827,125 L93.9293173,125 C93.6754435,125 93.5485066,124.90768 93.5485066,124.630721 L93.5485066,118.653801 C93.5485066,116.230669 92.3058051,114.568916 90.2257467,114.568916 C88.1707557,114.568916 86.9024534,116.369149 86.9024534,118.81562 L86.9024534,124.630721 C86.9024534,124.90768 86.8011172,125 86.5221761,125 L85.3802773,125 C85.1013362,125 85,124.90768 85,124.630721 L85,113.622898 Z" id="Fill-13" fill="#EEE45C"></path>
                <path d="M116.963847,119.666892 C115.579012,119.191992 114.520122,118.853213 112.9726,118.853213 C110.393588,118.853213 109.036153,119.712097 109.036153,121.249048 C109.036153,122.649877 110.25773,123.666723 112.45714,123.666723 C114.330606,123.666723 116.095043,122.604673 116.963847,121.542623 L116.963847,119.666892 Z M117.289792,122.853043 C116.556845,123.689579 114.764437,125 111.832652,125 C109.226239,125 107,123.666723 107,121.249048 C107,118.78566 109.226239,117.587488 112.565598,117.587488 C114.004662,117.587488 115.579012,117.903919 116.963847,118.37882 C116.963847,115.53094 115.959186,114.491746 113.108458,114.491746 C111.37085,114.491746 109.959186,114.694912 108.927695,114.852874 C108.873466,114.87573 108.791837,114.87573 108.764437,114.87573 C108.547522,114.87573 108.465893,114.762973 108.411664,114.536443 L108.194748,113.858884 C108.11312,113.610006 108.194748,113.497249 108.520122,113.40684 C108.846066,113.339287 111.099705,113 113.190087,113 C117.751023,113 119,114.694912 119,118.424024 L119,124.389994 C119,124.661221 118.891542,124.75163 118.592998,124.75163 L117.805822,124.75163 C117.588336,124.75163 117.479878,124.661221 117.398249,124.389994 L117.289792,122.853043 Z" id="Fill-15" fill="#EEE45C"></path>
                <path d="M34.8956203,191.631313 C34.8956203,192.200796 34.8956203,195.142945 34.4791943,197.420876 C33.1249902,204.538876 29.062378,206.72207 25.8331642,207.861035 C22.3957374,209 18.7500976,209 17.7084862,209 C13.5414943,209 9.99968772,208.430517 6.56226091,206.057319 C5.83324225,205.488368 4.37465844,204.349403 3.1248341,202.640955 C0.312592708,198.749846 0,193.814507 0,184.512781 L0,173.788413 C0,169.991508 0,166.289871 0.103833242,162.493498 C0.208212975,157.368687 0.208212975,150.060682 3.95823249,145.504821 C7.18744633,141.518443 13.3332813,140 18.4375049,140 C24.9997658,140 28.7497853,142.467403 30.7286283,144.271119 C33.5414162,146.928527 34.5830276,150.344891 34.5830276,157.748164 C34.5830276,159.171871 34.5830276,160.690313 34.4791943,162.11402 L26.0413772,162.11402 C26.0413772,159.741353 26.0413772,157.273418 25.9375439,154.806015 C25.8331642,152.053338 25.6249512,150.060682 23.124756,148.352234 C22.2913576,147.782751 20.8333203,147.023796 18.4375049,147.023796 C16.1455227,147.023796 11.4582715,147.49801 10.1040675,152.907562 C9.16628933,156.703935 9.06245609,164.866164 9.06245609,174.926846 C9.06245609,179.957453 9.16628933,184.892791 9.37504879,189.923398 C9.47888204,192.580274 9.27066906,196.187174 10.8330861,198.654577 C12.8124756,201.881468 17.187134,201.976204 18.2287454,201.976204 C19.0621438,201.976204 21.145913,201.976204 23.124756,200.55303 C26.5621828,198.180363 26.4583496,192.865015 26.4583496,189.448119 L26.4583496,184.512781 L35,184.512781 C35,186.88598 35,189.258647 34.8956203,191.631313" id="Fill-17" fill="#FFFFFF"></path>
                <path d="M68.0267953,152.232536 C66.1881029,147.320185 60.6720257,147.705828 56.2797428,147.705828 L51.8869239,147.705828 L51.8869239,171.496295 L56.5857449,171.496295 C60.5696677,171.496295 62.5107181,171.399614 64.4517685,170.72555 C68.9458735,168.991779 68.8440514,163.019722 68.8440514,159.45604 C68.8440514,157.144886 68.8440514,154.447549 68.0267953,152.232536 L68.0267953,152.232536 Z M71.6018221,208 L59.3440514,178.141876 L51.8869239,178.141876 L51.8869239,208 L43,208 L43,140 L58.7309753,140 C63.3279743,140 68.3333333,140.192821 72.2148982,143.17858 C78.2416935,147.801968 77.8327974,156.759244 77.8327974,158.107372 C77.8327974,160.99753 77.6286174,163.790467 77.1178992,166.583944 C76.4030011,170.436588 75.2792069,172.36318 74.1554126,173.711308 C71.9083601,176.311964 69.2524116,176.889888 68.1286174,177.17885 L81,208 L71.6018221,208 Z" id="Fill-19" fill="#FFFFFF"></path>
                <polygon id="Fill-21" fill="#FFFFFF" points="88 208 88 140 119.29574 140 119.29574 147.608607 96.8555119 147.608607 96.8555119 167.835392 116.478173 167.835392 116.478173 175.54122 96.8555119 175.54122 96.8555119 200.391393 120 200.391393 120 208"></polygon>
                <path d="M183.023231,226.21312 C175.476769,231 167.072596,231 164.156808,231 C159.869327,231 142.547,230.680696 136.88675,215.522333 C135.343192,211.374061 135,207.225789 135,202.917865 L135,190.471977 L149.23575,190.471977 L149.23575,196.056045 C149.23575,203.715053 149.23575,207.225789 150.607442,210.895641 C151.808346,213.926885 155.409981,219.032533 164.156808,219.032533 C169.988385,219.032533 175.648096,216.639361 178.049365,211.693365 C179.421057,208.980353 179.421057,206.108761 179.421057,204.991733 C179.421057,195.417973 174.790923,191.428818 168.102173,185.047025 L151.808346,169.409706 C142.375135,160.315438 137.916327,154.251879 137.916327,141.167919 C137.916327,139.571935 137.916327,135.103824 139.288019,130.477132 C141.689289,123.137964 148.378039,115 166.043558,115 C170.159711,115 186.453538,115.159116 190.569692,129.679408 C191.598731,133.508911 191.598731,138.774211 191.598731,142.763367 L191.598731,149.943419 L178.221231,149.943419 C178.049365,142.923019 178.049365,144.678119 178.049365,140.688963 C178.049365,135.582779 177.192192,130.636783 171.531942,128.08396 C168.788019,126.966932 166.215423,126.966932 165.186385,126.966932 C161.584211,126.966932 158.497096,127.76412 156.096366,129.998176 C154.724135,131.115739 154.038289,132.551535 153.694558,133.029956 C153.008712,134.466287 152.494731,136.859459 152.494731,140.529311 C152.494731,141.486687 152.494731,144.358815 153.523231,147.071291 C155.409981,152.337127 160.555173,156.645051 164.5,160.633671 L183.53775,179.461886 C184.909981,180.898218 186.110346,182.334014 187.31125,183.76981 C190.2265,187.280546 194,193.183917 194,203.874705 C194,217.277433 188.168962,223.022224 183.023231,226.21312" id="Fill-23" fill="#FFFFFF"></path>
                <polygon id="Fill-25" fill="#FFFFFF" points="211 211 211 143 242.295212 143 242.295212 150.608607 219.855512 150.608607 219.855512 170.835392 239.477645 170.835392 239.477645 178.54122 219.855512 178.54122 219.855512 203.390853 243 203.390853 243 211"></polygon>
                <path d="M276.026965,155.232536 C274.188221,150.320185 268.671452,150.705288 264.279045,150.705288 L259.887175,150.705288 L259.887175,174.495755 L264.585592,174.495755 C268.569627,174.495755 270.510733,174.399614 272.451302,173.72555 C276.946069,171.991239 276.843709,166.019722 276.843709,162.45604 C276.843709,160.144346 276.843709,157.447549 276.026965,155.232536 L276.026965,155.232536 Z M279.602093,211 L267.343977,181.141876 L259.887175,181.141876 L259.887175,211 L251,211 L251,143 L266.730883,143 C271.327476,143 276.333512,143.192281 280.21465,146.17804 C286.242152,150.801968 285.83378,159.759244 285.83378,161.107372 C285.83378,163.99753 285.629058,166.790467 285.118326,169.583404 C284.403407,173.436048 283.279581,175.36264 282.156291,176.711308 C279.90864,179.311964 277.252616,179.889888 276.12879,180.17885 L289,211 L279.602093,211 Z" id="Fill-27" fill="#FFFFFF"></path>
                <g id="Group-31" transform="translate(154.000000, 0.000000)">
                    <mask id="mask-2" fill="white">
                        <use xlink:href="#path-1"></use>
                    </mask>
                    <g id="Clip-30"></g>
                    <path d="M9.80611702,91.4290651 C9.80611702,91.4290651 -22.3954787,47.4915767 30.5949468,0.162390698 C30.5949468,0.162390698 80.4577128,54.8339256 18.131117,91.9366698 C18.131117,91.9366698 19.1316489,56.694786 25.9827128,42.3438558 C25.9827128,42.3438558 7.52473404,73.5628791 9.80611702,91.4290651" id="Fill-29" fill="#EEE45C" mask="url(#mask-2)"></path>
                </g>
                <path d="M138.785721,103.968325 C138.785721,103.968325 99.6742883,106.770274 88,59.6681699 C88,59.6681699 140.065871,50.5861201 142,99.3892533 C142,99.3892533 119.947616,86.3001787 113.205704,77.2877459 C113.205704,77.2877459 126.637659,98.926759 138.785721,103.968325" id="Fill-32" fill="#EEE45C"></path>
                <path d="M159.389092,97.464428 C157.241214,95.5118573 153.758786,95.5118573 151.610908,97.464428 C149.463031,99.4169986 149.463031,102.583001 151.610908,104.535572 C153.758786,106.488143 157.241214,106.488143 159.389092,104.535572 C161.536969,102.583001 161.536969,99.4169986 159.389092,97.464428" id="Fill-34" fill="#EEE45C"></path>
            </g>
        </g>
    </g>
</svg>